<?xml version="1.0" encoding="UTF-8" standalone="no"?>
<svg
   viewBox="-15.224988 -13.538598 97.533103 103.387155"
   width="128"
   height="128"
   version="1.1"
   id="svg3"
   xmlns="http://www.w3.org/2000/svg"
   xmlns:svg="http://www.w3.org/2000/svg">
  <defs
     id="defs1" />
  <g
     transform="translate(-16.799567,-11.696227)"
     id="g3">
    <g
       id="g2">
      <g
         id="g1">
        <path
           style="fill:currentColor;stroke:none"
           d="m 27.816406,2.9726563 -5.654297,3.5839843 -23.01953088,72.7617184 3.76757818,6.63086 76.0332027,17.882811 6.38086,-4.722655 c 0,0 4.080078,-62.531336 4.080078,-62.566406 0,-1.37e-4 -4.082728,-5.082056 -4.263672,-5.115235 -0.180944,-0.03318 -0.23074,-0.03866 -0.279297,-0.04492 -0.09711,-0.01252 -0.126993,-0.01421 -0.160156,-0.01758 -0.06633,-0.0067 -0.10751,-0.01116 -0.158203,-0.01563 -0.101386,-0.0089 -0.223975,-0.01852 -0.38086,-0.03125 -0.313769,-0.02547 -0.759226,-0.06144 -1.326172,-0.105468 -1.13389,-0.08806 -2.748341,-0.210741 -4.685546,-0.357422 -3.87441,-0.293362 -9.041618,-0.68074 -14.22461,-1.064453 -5.182992,-0.383714 -10.380873,-0.764236 -14.318359,-1.044922 -1.968743,-0.140343 -3.621036,-0.255086 -4.808594,-0.333985 -0.593779,-0.03945 -1.068769,-0.06933 -1.425781,-0.08984 -0.178506,-0.01026 -0.322722,-0.01752 -0.464844,-0.02344 -0.07106,-0.003 -0.139356,-0.0061 -0.242187,-0.0078 -0.102831,-0.0017 0.143941,-0.0973 -0.896485,0.05664 -1.729561,0.255905 -2.359002,0.944261 -2.761719,1.3125 -0.402716,0.36824 -0.570116,0.606186 -0.705078,0.791016 -0.269923,0.36966 -0.355363,0.546313 -0.4375,0.701172 -0.164272,0.309717 -0.236659,0.48568 -0.318359,0.677734 -0.163401,0.384108 -0.312777,0.774848 -0.492188,1.257813 -0.35882,0.965929 -0.813021,2.251603 -1.341796,3.789062 -1.057551,3.074918 -2.408522,7.127935 -3.744141,11.185547 -1.335619,4.057612 -2.653443,8.11471 -3.638672,11.179687 -0.492615,1.532489 -0.900258,2.815294 -1.189453,3.736329 -0.144597,0.460517 -0.260253,0.828026 -0.345703,1.111328 -0.04273,0.141651 -0.07629,0.256256 -0.113281,0.388672 -0.0185,0.06621 -0.0369,0.12916 -0.06836,0.259765 -0.01573,0.0653 -0.03482,0.139854 -0.06641,0.314453 -0.01579,0.0873 -0.03519,0.19531 -0.05664,0.40625 -0.02145,0.210941 0.04478,1.397628 0.04492,1.398438 1.37e-4,8.1e-4 1.017784,2.357284 1.359375,2.716797 0.341591,0.359513 0.54562,0.503826 0.703125,0.61914 0.31501,0.230629 0.450861,0.296264 0.564453,0.359375 0.227185,0.126224 0.320274,0.166488 0.41211,0.208985 0.183671,0.08499 0.308585,0.136787 0.458984,0.199218 0.300799,0.124863 0.663152,0.2678 1.117188,0.445313 0.908071,0.355025 2.162173,0.836566 3.666015,1.40625 3.007686,1.139369 6.997171,2.631056 10.984375,4.117187 7.974408,2.972264 15.939453,5.917969 15.939453,5.917969 l 6.708985,-6.599609 -8.416016,-23.988281 -1.720703,-4.90625 -9.814453,3.443359 1.722656,4.90625 4.75,13.537109 c -2.433887,-0.903337 -2.76971,-1.022479 -5.539062,-2.054687 -3.978505,-1.482889 -7.956516,-2.973315 -10.929688,-4.09961 -0.179048,-0.06783 -0.258111,-0.09893 -0.429687,-0.164062 0.06286,-0.195953 0.09217,-0.290674 0.158203,-0.496094 0.976302,-3.037207 2.289828,-7.078811 3.617187,-11.111328 1.327359,-4.032517 2.671919,-8.062046 3.701172,-11.054687 0.193914,-0.563822 0.303557,-0.855429 0.472656,-1.337891 0.909247,0.0629 1.674997,0.115625 2.847657,0.199219 3.92007,0.279444 9.111817,0.65968 14.289062,1.042968 5.177246,0.383289 10.340389,0.769726 14.207031,1.0625 0.548928,0.04156 0.831244,0.06406 1.324219,0.101563 -0.477005,7.293666 -2.74522,41.881158 -3.341797,50.972656 L 10.75,77.109375 30.710937,14.013672 c 20.450441,3.561264 43.639459,12.699656 65.796875,15.36914 l 5.162108,0.621094 1.24414,-10.326172 -5.162107,-0.621093 C 76.243459,16.465337 51.349949,6.1554716 27.816406,2.9726563 Z"
           id="path1"
           transform="matrix(0.83784959,-0.37172412,0.36911695,0.83197313,-14.189115,25.58052)" />
      </g>
    </g>
  </g>
</svg>
