<svg width="128" height="128" viewBox="0 0 128 128" xmlns="http://www.w3.org/2000/svg" role="img" aria-label="Open JJ">
  <rect x="0" y="0" width="128" height="128" rx="22" fill="#F4EFE6"/>
  <rect x="18" y="18" width="92" height="92" rx="18" fill="#111111"/>
  <path d="M44 36h18v42c0 8-5 14-16 14h-8v-12h7c3 0 5-2 5-5V48H44V36z" fill="#F4EFE6"/>
  <path d="M68 36h16c8 0 14 6 14 14v10c0 8-6 14-14 14h-4v14H68V76h15c2 0 3-2 3-4V50c0-2-1-4-3-4H68V36z" fill="#F4EFE6"/>
  <circle cx="28" cy="64" r="4" fill="#F4EFE6"/>
  <circle cx="100" cy="64" r="4" fill="#F4EFE6"/>
</svg>
